<svg width="29" height="30" viewBox="0 0 29 30" fill="none" xmlns="http://www.w3.org/2000/svg">
<path d="M12 13.9998V17.9998L15 20.9998M21 17.9998C21 22.9703 16.9706 26.9998 12 26.9998C7.02944 26.9998 3 22.9703 3 17.9998C3 13.0292 7.02944 8.99976 12 8.99976C16.9706 8.99976 21 13.0292 21 17.9998Z" stroke="#757575" stroke-width="2" stroke-linecap="round" stroke-linejoin="round"/>
<g clip-path="url(#clip0_421_462)">
<path fill-rule="evenodd" clip-rule="evenodd" d="M20.2319 4.59104C20.2336 4.3149 20.4587 4.09236 20.7349 4.09399L23.5633 4.11061C23.8394 4.11224 24.0619 4.33741 24.0603 4.61354L24.0437 7.44192C24.0421 7.71806 23.8169 7.9406 23.5408 7.93897C23.2646 7.93735 23.0421 7.71218 23.0437 7.43604L23.0532 5.81475L18.933 9.88679C18.7366 10.0809 18.42 10.079 18.2259 9.88264C18.0318 9.68623 18.0337 9.36965 18.2301 9.17554L22.3503 5.1035L20.729 5.09397C20.4529 5.09235 20.2303 4.86718 20.2319 4.59104Z" fill="#757575"/>
</g>
<defs>
<clipPath id="clip0_421_462">
<rect width="10" height="10" fill="white" transform="translate(21.0294 14.1418) rotate(-134.663)"/>
</clipPath>
</defs>
</svg>
