<svg width="29" height="30" viewBox="0 0 29 30" fill="none" xmlns="http://www.w3.org/2000/svg">
<path d="M17 13.9998V17.9998L20 20.9998M26 17.9998C26 22.9703 21.9706 26.9998 17 26.9998C12.0294 26.9998 8 22.9703 8 17.9998C8 13.0292 12.0294 8.99976 17 8.99976C21.9706 8.99976 26 13.0292 26 17.9998Z" stroke="#757575" stroke-width="2" stroke-linecap="round" stroke-linejoin="round"/>
<path fill-rule="evenodd" clip-rule="evenodd" d="M9.54592 6.21748C9.82206 6.21748 10.0459 6.44134 10.0459 6.71748L10.0459 9.54591C10.0459 9.82205 9.82206 10.0459 9.54592 10.0459L6.71749 10.0459C6.44135 10.0459 6.21749 9.82205 6.21749 9.54591C6.21749 9.26977 6.44135 9.04591 6.71749 9.04591L8.33881 9.04591L4.24262 4.94972C4.04736 4.75445 4.04736 4.43787 4.24262 4.24261C4.43788 4.04735 4.75447 4.04735 4.94973 4.24261L9.04592 8.3388V6.71748C9.04592 6.44134 9.26978 6.21748 9.54592 6.21748Z" fill="#757575"/>
</svg>
